<svg width="126" height="24" viewBox="0 0 126 24" fill="none" xmlns="http://www.w3.org/2000/svg">
<g id="BUUK FULL LOGO MAIN HORIZONTAL 1">
<g id="Group">
<path id="Vector" d="M10.4763 6.73126C10.4518 3.65201 8.02363 1.14309 4.97376 0.98888C4.87585 0.983985 4.77549 0.981537 4.67514 0.981537C2.75122 0.981537 1.19202 2.54074 1.19202 4.46466V7.87924H10.4763V6.78021C10.4763 6.76308 10.4763 6.74594 10.4763 6.73126Z" fill="#F3AA20"/>
<path id="Vector_2" d="M10.5399 7.87925H1.19202H10.4763V13.9986C10.4763 14.4269 10.1287 14.777 9.69788 14.777H3.98243C3.77437 14.777 3.57121 14.8479 3.40721 14.9801L1.66443 16.3876C1.47595 16.5393 1.19202 16.4047 1.19202 16.1624V20.7984V20.8033C1.19202 21.2439 1.54939 21.5988 1.98753 21.5988H7.88166C8.01874 21.6282 8.15091 21.6893 8.26106 21.7775L10.0038 23.1849C10.1923 23.3367 10.4763 23.202 10.4763 22.9597V21.5988H10.5399C14.329 21.5988 17.4009 18.5269 17.4009 14.7378C17.4009 10.9487 14.329 7.8768 10.5399 7.8768V7.87925Z" fill="#00A99D"/>
<path id="Vector_3" d="M1.19202 7.87925V16.1599C1.19202 16.4047 1.47351 16.5369 1.66443 16.3851L3.40721 14.9777C3.57121 14.8455 3.77192 14.7745 3.98243 14.7745H9.69788C10.1262 14.7745 10.4763 14.4269 10.4763 13.9961V7.8768H1.19202V7.87925Z" fill="#004741"/>
</g>
<g id="Group_2">
<g id="Group_3">
<path id="Vector_4" d="M24.7294 21.7383C21.0651 21.7383 18.7202 19.3934 18.7202 15.6704V7.9747H21.5302V15.6704C21.5302 17.7828 22.7908 19.1388 24.7465 19.1388C26.7023 19.1388 27.9261 17.7828 27.9261 15.6704V7.9747H30.7361V15.6704C30.7361 19.3738 28.3716 21.7383 24.7269 21.7383H24.7294Z" fill="#004741"/>
<path id="Vector_5" d="M38.9972 21.7383C35.333 21.7383 32.988 19.3934 32.988 15.6704V7.9747H35.798V15.6704C35.798 17.7828 37.0586 19.1388 39.0143 19.1388C40.9701 19.1388 42.194 17.7828 42.194 15.6704V7.9747H45.0039V15.6704C45.0039 19.3738 42.6394 21.7383 38.9972 21.7383Z" fill="#004741"/>
<path id="Vector_6" d="M47.4174 7.97471H50.2274V14.0622L56.1582 7.97471H59.5899L53.0373 14.4294L59.8983 21.5425H56.1386L50.2274 15.1833V21.5425H47.4174V7.97226V7.97471Z" fill="#004741"/>
</g>
<g id="Group_4">
<path id="Vector_7" d="M78.6774 7.9747H81.3527L88.0987 16.7572V7.9747H90.7349V21.5449H88.2529L81.3332 12.4736V21.5449H78.6774V7.9747Z" fill="#004741"/>
<path id="Vector_8" d="M106.65 14.7598C106.65 15.7291 106.462 16.6446 106.087 17.5037C105.713 18.3629 105.206 19.107 104.565 19.7336C103.926 20.3602 103.164 20.8547 102.288 21.2169C101.409 21.5792 100.467 21.7603 99.4586 21.7603C98.4501 21.7603 97.5273 21.5792 96.6486 21.2169C95.7699 20.8547 95.0111 20.3602 94.3698 19.7336C93.7309 19.107 93.2218 18.3629 92.8473 17.5037C92.4728 16.6446 92.2843 15.7291 92.2843 14.7598C92.2843 13.7905 92.4703 12.8775 92.8473 12.0159C93.2218 11.1568 93.7285 10.4126 94.3698 9.78603C95.0111 9.15941 95.7674 8.66497 96.6486 8.3027C97.5273 7.94044 98.4648 7.75931 99.4586 7.75931C100.452 7.75931 101.409 7.94044 102.288 8.3027C103.167 8.66497 103.926 9.15941 104.565 9.78603C105.203 10.4126 105.713 11.1568 106.087 12.0159C106.462 12.8751 106.65 13.7905 106.65 14.7598ZM103.762 14.7598C103.762 14.1259 103.652 13.5408 103.431 13.0048C103.211 12.4687 102.91 12.0037 102.531 11.6096C102.149 11.2155 101.693 10.9046 101.165 10.6795C100.634 10.4543 100.066 10.3392 99.4586 10.3392C98.8516 10.3392 98.2861 10.4518 97.7623 10.6795C97.2385 10.9046 96.7857 11.2155 96.4063 11.6096C96.0244 12.0037 95.7234 12.4687 95.5055 13.0048C95.2852 13.5408 95.1751 14.1259 95.1751 14.7598C95.1751 15.3938 95.2852 15.9617 95.5055 16.505C95.7258 17.0484 96.0244 17.516 96.4063 17.91C96.7881 18.3041 97.241 18.615 97.7623 18.8402C98.2861 19.0654 98.8516 19.1804 99.4586 19.1804C100.066 19.1804 100.634 19.0678 101.165 18.8402C101.693 18.615 102.151 18.3041 102.531 17.91C102.912 17.516 103.211 17.0484 103.431 16.505C103.652 15.9617 103.762 15.3815 103.762 14.7598Z" fill="#004741"/>
<path id="Vector_9" d="M112.894 21.5449H109.947L106.941 7.9747H109.83L111.67 17.1831L114.326 7.9747H116.962L119.598 17.1439L121.439 7.9747H124.23L121.226 21.5449H118.279L115.584 12.0649L112.889 21.5449H112.894Z" fill="#004741"/>
</g>
<g id="Group_5">
<path id="Vector_10" d="M65.2883 17.1831L63.3106 13.3842V17.5918H62.2164V11.8739H63.7365L65.3055 14.9458L66.8745 11.8739H68.3945V17.5918H67.2759V13.3915L65.2908 17.1831H65.2883Z" fill="#004741"/>
<path id="Vector_11" d="M69.4862 17.5918V11.8739H73.8823V12.902H70.6709V14.2091H72.7857V15.2053H70.6709V16.5613H73.9142V17.5918H69.4862Z" fill="#004741"/>
</g>
</g>
</g>
</svg>
